<svg xmlns:inkscape="http://www.inkscape.org/namespaces/inkscape" xmlns:sodipodi="http://sodipodi.sourceforge.net/DTD/sodipodi-0.dtd" xmlns="http://www.w3.org/2000/svg" xmlns:svg="http://www.w3.org/2000/svg" width="210mm" height="297mm" viewBox="0 0 210 297" version="1.1" id="svg5" inkscape:version="1.1 (c68e22c387, 2021-05-23)" sodipodi:docname="creative-collisions-logo.svg">
  <sodipodi:namedview id="namedview7" pagecolor="#ffffff" bordercolor="#999999" borderopacity="1" inkscape:pageshadow="0" inkscape:pageopacity="0" inkscape:pagecheckerboard="0" inkscape:document-units="mm" showgrid="false" showguides="true" inkscape:guide-bbox="true" inkscape:zoom="1" inkscape:cx="288.5" inkscape:cy="420.5" inkscape:window-width="1920" inkscape:window-height="1017" inkscape:window-x="1912" inkscape:window-y="-8" inkscape:window-maximized="1" inkscape:current-layer="layer1"/>
  <defs id="defs2">
    <pattern inkscape:collect="always" patternUnits="userSpaceOnUse" width="30.066020" height="5.1805778" id="Wavy" inkscape:stockid="Wavy" inkscape:isstock="true">
      <path style="fill:black;stroke:none;" d="M 7.597,0.061 C 5.079,-0.187 2.656,0.302 -0.01,1.788 L -0.01,3.061 C 2.773,1.431 5.173,1.052 7.472,1.280 C 9.770,1.508 11.969,2.361 14.253,3.218 C 18.820,4.931 23.804,6.676 30.066,3.061 L 30.062,1.788 C 23.622,5.497 19.246,3.770 14.691,2.061 C 12.413,1.207 10.115,0.311 7.597,0.061 z " id="path55276"/>
    </pattern>
    <rect x="72.033349" y="126.05836" width="820.88004" height="940.93562" id="rect15822"/>
    <rect x="135.06253" y="264.12228" width="267.12367" height="207.09588" id="rect6456"/>
    <clipPath clipPathUnits="userSpaceOnUse" id="clipPath37212">
      <path id="path37214" style="fill:#ff0000;fill-opacity:1;fill-rule:nonzero;stroke:none;stroke-width:0.264583" d="M 0,0 V 100.0001 H 89.999159 V 0 H 24.902356 c -0.01356,0.15588902 -0.03672,0.31086539 -0.05995,0.46560465 -0.03061,0.40101485 -0.113212,0.79458835 -0.185002,1.18959145 -0.08015,0.3985664 -0.153619,0.7994965 -0.253731,1.1937256 -0.07093,0.27931 -0.111409,0.4090646 -0.187068,0.6666259 -0.09045,0.3048087 -0.186334,0.6073621 -0.288355,0.9084717 -0.02261,0.066712 -0.04223,0.1344211 -0.06925,0.199471 -0.07638,0.1839076 -0.100682,0.2169999 -0.188102,0.366386 -0.121048,0.2062594 -0.204584,0.4301638 -0.285254,0.6542236 -0.01473,0.03127 -0.0284,0.062646 -0.04393,0.093534 -0.0083,0.01656 -0.01801,0.032819 -0.02687,0.049093 10e-4,-0.00127 0.0021,-0.00241 0.0031,-0.00259 0.0031,-5.556e-4 -8.73e-4,0.00665 -0.0026,0.0093 -0.02206,0.033698 -0.04098,0.054775 -0.05426,0.068213 -5.03e-4,0.00754 -0.001,0.014788 -0.0021,0.02222 8.46e-4,-2.78e-5 0.0012,2.91e-5 0.0021,0 -0.0016,0.0022 -0.0012,0.0022 -0.0026,0.00414 -5.03e-4,0.00287 -0.0013,0.00597 -0.0021,0.00878 -0.0012,0.00428 -0.03962,0.048541 0.0021,-0.00878 2.33e-4,-0.00132 3.17e-4,-0.00279 5.29e-4,-0.00414 -0.02616,8.731e-4 -0.02055,6.615e-4 0.0021,-0.02222 3.17e-4,-0.00462 5.02e-4,-0.00937 10e-4,-0.013952 0.04008,-0.344661 -0.354582,0.3923935 -0.347782,0.045476 0.0015,-0.077081 0.0048,-0.1363774 0.05323,-0.2010215 0.01481,-0.019323 0.0227,-0.056037 0.03979,-0.069763 0.01484,-0.032791 0.03099,-0.064514 0.04857,-0.097152 0.08814,-0.2447314 0.180758,-0.4885328 0.31316,-0.7136514 0.0707,-0.1181542 0.09808,-0.1568312 0.158646,-0.3023071 0.02659,-0.063861 0.04549,-0.1308576 0.0677,-0.1963705 0.10069,-0.2970303 0.196004,-0.5958973 0.285253,-0.8965862 0.07223,-0.2455857 0.11375,-0.3812669 0.18089,-0.6454386 C 24.160458,2.381768 24.233537,1.9860601 24.312717,1.592661 24.38389,1.2011561 24.465552,0.81091598 24.495662,0.41341146 24.516276,0.27618166 24.53949,0.13844129 24.553023,0 Z"/>
    </clipPath>
  </defs>
  <g inkscape:label="Warstwa 1" inkscape:groupmode="layer" id="layer1" style="display:inline">
    <path id="path38139-1" style="display:inline;fill:none;fill-rule:nonzero;stroke:#000000;stroke-width:19;stroke-linecap:round;stroke-linejoin:round;stroke-miterlimit:4;stroke-dasharray:none;stroke-opacity:1;paint-order:markers fill stroke" d="m 121.67326,98.264724 c -2.76557,0.221671 -5.50831,0.701191 -8.15973,1.526349 -3.60424,1.131457 -7.03329,2.827697 -10.09711,5.041447 -2.67796,1.91765 -5.078964,4.22654 -7.114487,6.81539 -2.164253,2.74239 -3.895436,5.81418 -5.165723,9.06693 -0.723082,1.87795 -1.259926,3.81881 -1.69355,5.78302 0.173846,0.86745 1.175646,1.01453 1.79018,1.49854 1.325928,0.7885 2.651855,1.577 3.977782,2.36548 0.731708,-0.13652 0.953326,-0.66274 0.959988,-1.35316 0.578705,-3.85556 2.009335,-7.56176 4.06372,-10.86944 2.18594,-3.3984 5.0449,-6.37792 8.43446,-8.58938 3.54653,-2.3621 7.63786,-3.89482 11.85857,-4.47729 4.17684,-0.5855 8.47828,-0.21846 12.50468,1.03561 3.97264,1.24337 7.66195,3.36623 10.74116,6.16809 4.5059,4.08345 7.65829,9.62986 8.82376,15.60299 1.03595,5.16964 0.59112,10.61692 -1.22428,15.5155 -1.94323,5.31245 -5.58728,10.11948 -10.24968,13.41953 -0.14815,0.73363 0.25172,1.13834 0.90097,1.39336 1.26908,0.75529 2.53815,1.51059 3.80723,2.26588 0.88453,0.0911 1.35507,-0.81818 2.00179,-1.26918 7.02953,-6.44493 11.21521,-15.84812 11.30062,-25.38464 0.15023,-9.26633 -3.53344,-18.5512 -10.10392,-25.10351 -2.35171,-2.42718 -5.0943,-4.46351 -8.03644,-6.11889 -3.11021,-1.69628 -6.45962,-2.957674 -9.93382,-3.662323 -3.01077,-0.637117 -6.10444,-0.82576 -9.17603,-0.677439 -0.0699,0.0043 -0.14036,-5.39e-4 -0.21014,0.0071 z"/>
    <path id="path38139-1-2" style="display:inline;fill:none;fill-opacity:1;fill-rule:nonzero;stroke:#1f5b8d;stroke-width:19;stroke-linecap:round;stroke-linejoin:round;stroke-miterlimit:4;stroke-dasharray:none;stroke-opacity:0.99738902;paint-order:markers fill stroke" d="m 97.86107,161.62637 c 2.74644,-0.39312 5.45408,-1.04217 8.04909,-2.03053 3.52696,-1.35326 6.84395,-3.25935 9.76426,-5.65923 2.55361,-2.08038 4.80647,-4.53403 6.67716,-7.24438 1.98963,-2.8716 3.52655,-6.04504 4.59222,-9.37046 0.60497,-1.91926 1.02016,-3.88974 1.33086,-5.87709 -0.22742,-0.85497 -1.23642,-0.93951 -1.87985,-1.38439 -1.37237,-0.70456 -2.74474,-1.40913 -4.11711,-2.11368 -0.72181,0.18173 -0.91029,0.7207 -0.87403,1.41021 -0.33797,3.88407 -1.53549,7.67202 -3.38033,11.10099 -1.9705,3.52769 -4.63875,6.67912 -7.88432,9.09697 -3.39287,2.57795 -7.38103,4.362 -11.557373,5.20565 -4.132382,0.84397 -8.448317,0.74497 -12.544874,-0.25645 -4.042241,-0.99406 -7.856349,-2.88352 -11.10375,-5.48859 -4.750975,-3.79551 -8.241983,-9.13528 -9.776432,-15.02443 -1.355245,-5.09525 -1.249824,-10.55965 0.257616,-15.56158 1.609301,-5.42296 4.947552,-10.44718 9.395846,-14.03062 0.102228,-0.74142 -0.321985,-1.1205 -0.98584,-1.33467 -1.313556,-0.67496 -2.627122,-1.34992 -3.940689,-2.02488 -0.888479,-0.036 -1.301601,0.90082 -1.919043,1.39114 -6.615381,6.86936 -10.208564,16.51451 -9.701108,26.03791 0.425966,9.25775 4.679573,18.29572 11.644587,24.42701 2.498005,2.27633 5.361865,4.13827 8.401195,5.60759 3.209619,1.4997 6.630953,2.55049 10.142232,3.03785 3.044541,0.44876 6.14395,0.44477 9.200391,0.10583 0.06947,-0.009 0.14012,-0.008 0.20929,-0.0202 z"/>
    <path id="path63402" style="display:inline;fill:none;fill-opacity:1;fill-rule:nonzero;stroke:url(#Wavy);stroke-width:19;stroke-linecap:round;stroke-linejoin:round;stroke-miterlimit:4;stroke-dasharray:none;stroke-opacity:0.420366;paint-order:markers fill stroke" d="m 97.86107,161.62637 c 2.74644,-0.39312 5.45408,-1.04217 8.04909,-2.03053 3.52696,-1.35326 6.84395,-3.25935 9.76426,-5.65923 2.55361,-2.08038 4.80647,-4.53403 6.67716,-7.24438 1.98963,-2.8716 3.52655,-6.04504 4.59222,-9.37046 0.60497,-1.91926 1.02016,-3.88974 1.33086,-5.87709 -0.22742,-0.85497 -1.23642,-0.93951 -1.87985,-1.38439 -1.37237,-0.70456 -2.74474,-1.40913 -4.11711,-2.11368 -0.72181,0.18173 -0.91029,0.7207 -0.87403,1.41021 -0.33797,3.88407 -1.53549,7.67202 -3.38033,11.10099 -1.9705,3.52769 -4.63875,6.67912 -7.88432,9.09697 -3.39287,2.57795 -7.38103,4.362 -11.557373,5.20565 -4.132382,0.84397 -8.448317,0.74497 -12.544874,-0.25645 -4.042241,-0.99406 -7.856349,-2.88352 -11.10375,-5.48859 -4.750975,-3.79551 -8.241983,-9.13528 -9.776432,-15.02443 -1.355245,-5.09525 -1.249824,-10.55965 0.257616,-15.56158 1.609301,-5.42296 4.947552,-10.44718 9.395846,-14.03062 0.102228,-0.74142 -0.321985,-1.1205 -0.98584,-1.33467 -1.313556,-0.67496 -2.627122,-1.34992 -3.940689,-2.02488 -0.888479,-0.036 -1.301601,0.90082 -1.919043,1.39114 -6.615381,6.86936 -10.208564,16.51451 -9.701108,26.03791 0.425966,9.25775 4.679573,18.29572 11.644587,24.42701 2.498005,2.27633 5.361865,4.13827 8.401195,5.60759 3.209619,1.4997 6.630953,2.55049 10.142232,3.03785 3.044541,0.44876 6.14395,0.44477 9.200391,0.10583 0.06947,-0.009 0.14012,-0.008 0.20929,-0.0202 z"/>
  </g>
</svg>